<svg width="128" height="128" viewBox="0 0 128 128" fill="none" xmlns="http://www.w3.org/2000/svg">
<path d="M112.75 64C112.75 90.9297 90.9297 112.75 64 112.75C37.0703 112.75 15.25 90.9297 15.25 64C15.25 37.0703 37.0703 15.25 64 15.25C90.9297 15.25 112.75 37.0703 112.75 64ZM4 64C4 97.1406 30.8594 124 64 124C97.1406 124 124 97.1406 124 64C124 30.8594 97.1406 4 64 4C30.8594 4 4 30.8594 4 64Z" fill="black"/>
<path d="M57.0667 37.617H70.9333L77 86.9787L64 104L51 86.9787L57.0667 37.617Z" fill="black"/>
<path d="M53.6001 24H74.4001L70.9334 34.2128H57.0668L53.6001 24Z" fill="black"/>
</svg>
