<svg width="128" height="128" viewBox="0 0 128 128" fill="none" xmlns="http://www.w3.org/2000/svg">
<path d="M34.8809 53.5703C34.8105 53.957 34.7402 54.4551 34.6699 55.0645C34.5996 55.6738 34.5645 56.1484 34.5645 56.4883V69.0566C34.5645 70.334 34.6699 71.7227 34.8809 73.2227L37.2188 73.4512L37.043 76.1758C36.7031 76.1523 35.877 76.1172 34.5645 76.0703C33.2637 76.0234 31.7637 76 30.0645 76C29.373 76 28.6523 76.0234 27.9023 76.0703C27.1641 76.1172 26.6836 76.1523 26.4609 76.1758L26.2852 73.6621L28.6582 73.2227C28.6816 73.082 28.7402 72.625 28.834 71.8516C28.9277 71.0664 28.9746 70.4922 28.9746 70.1289V65.1367H19.0078V69.0566C19.0078 70.334 19.1191 71.7227 19.3418 73.2227L21.6797 73.4512L21.5039 76.1758C21.1641 76.1523 20.3379 76.1172 19.0254 76.0703C17.7246 76.0234 16.2188 76 14.5078 76C13.8164 76 13.0957 76.0234 12.3457 76.0703C11.6074 76.1172 11.127 76.1523 10.9043 76.1758L10.7285 73.6621L13.1016 73.2227C13.125 73.082 13.1836 72.625 13.2773 71.8516C13.3828 71.0664 13.4355 70.4922 13.4355 70.1289V57.5605C13.4355 56.5059 13.377 55.5977 13.2598 54.8359C13.1543 54.0625 13.1016 53.6406 13.1016 53.5703L10.7637 53.1484L10.9395 50.4414C11.1504 50.4648 11.6309 50.5 12.3809 50.5469C13.1309 50.5938 13.8516 50.6172 14.543 50.6172C16.2422 50.6172 17.748 50.5938 19.0605 50.5469C20.373 50.5 21.1992 50.4648 21.5391 50.4414L21.7148 53.3594L19.3418 53.5703C19.2715 53.957 19.1953 54.4551 19.1133 55.0645C19.043 55.6738 19.0078 56.1484 19.0078 56.4883V61.9902L28.9746 61.8496V57.5605C28.9746 56.5059 28.9219 55.5977 28.8164 54.8359C28.7109 54.0625 28.6582 53.6406 28.6582 53.5703L26.3203 53.1484L26.4961 50.4414C26.707 50.4648 27.1875 50.5 27.9375 50.5469C28.6875 50.5938 29.4082 50.6172 30.0996 50.6172C31.7988 50.6172 33.3047 50.5938 34.6172 50.5469C35.9297 50.5 36.75 50.4648 37.0781 50.4414L37.2715 53.3594L34.8809 53.5703Z" fill="black"/>
<path fill-rule="evenodd" clip-rule="evenodd" d="M69.8652 72.9678C71.7305 72.9678 73.2303 74.4692 73.2305 76.3359C73.2305 77.1443 72.9421 77.9144 72.4229 78.5303L67.1543 84.6895L73.1152 106.841H73.2305L79.8848 80.1855C80.3078 78.5111 82.0194 77.4916 83.6348 78.1074C95.5384 82.6495 104 94.1966 104 107.707C104 110.613 101.634 112.98 98.7305 112.98L29.2695 113C26.3657 113 24 110.633 24 107.727C24 94.2159 32.4614 82.6681 44.3652 78.126C45.9806 77.5101 47.6922 78.5307 48.1152 80.2051L54.7695 106.86H54.8848L60.8457 84.708L55.5771 78.5498C55.0579 77.9339 54.7695 77.1638 54.7695 76.3555C54.7696 74.4886 56.2694 72.9873 58.1348 72.9873V72.9678H69.8652Z" fill="black"/>
<path d="M93.6816 52.2539L91.7656 51.9551L91.9941 49.4414C92.2051 49.4648 92.6797 49.5 93.418 49.5469C94.168 49.5938 94.8184 49.6172 95.3691 49.6172C97.0684 49.6172 98.5742 49.5938 99.8867 49.5469C101.199 49.5 102.037 49.4648 102.4 49.4414L102.506 52.0957L100.994 52.2891C101.545 53.5078 102.037 54.416 102.471 55.0137L104.51 58.1074L106.971 54.1875C107.287 53.7305 107.633 53.0859 108.008 52.2539L106.531 51.9551L106.742 49.4414C106.953 49.4648 107.434 49.5 108.184 49.5469C108.934 49.5938 109.654 49.6172 110.346 49.6172C111.588 49.6172 112.713 49.5938 113.721 49.5469C114.74 49.5 115.379 49.4648 115.637 49.4414L115.777 52.0957L113.439 52.3945C112.244 53.543 111.535 54.252 111.312 54.5215L106.812 61.3945L113.088 70.2539C113.908 71.2148 114.494 71.8828 114.846 72.2578L116.691 72.4512L116.463 75.1758C116.1 75.1523 115.262 75.1172 113.949 75.0703C112.648 75.0234 111.148 75 109.449 75C108.898 75 108.283 75.0234 107.604 75.0703C106.936 75.1172 106.496 75.1523 106.285 75.1758L106.145 72.6621L107.463 72.416C106.842 71.1387 106.373 70.2949 106.057 69.8848L103.262 65.8945L100.309 70.2539C100.016 70.6875 99.6406 71.3672 99.1836 72.293L100.959 72.4512L100.73 75.1758C100.461 75.1523 99.8223 75.1172 98.8145 75.0703C97.8184 75.0234 96.6934 75 95.4395 75C94.748 75 94.0273 75.0234 93.2773 75.0703C92.5391 75.1172 92.0645 75.1523 91.8535 75.1758L91.6953 72.6621L93.5762 72.3281C95.2285 70.6055 96.2129 69.5273 96.5293 69.0938L100.994 62.6602L95.5977 54.9082L93.6816 52.2539Z" fill="black"/>
<path d="M82.6875 39C82.6875 49.323 74.323 57.6875 64 57.6875C53.677 57.6875 45.3125 49.323 45.3125 39C45.3125 28.677 53.677 20.3125 64 20.3125C74.323 20.3125 82.6875 28.677 82.6875 39ZM41 39C41 51.7039 51.2961 62 64 62C76.7039 62 87 51.7039 87 39C87 26.2961 76.7039 16 64 16C51.2961 16 41 26.2961 41 39ZM61.8438 26.7812V39C61.8438 39.7188 62.2031 40.3926 62.8051 40.7969L71.4301 46.5469C72.4184 47.2117 73.757 46.9422 74.4219 45.9449C75.0867 44.9477 74.8172 43.618 73.8199 42.9531L66.1562 37.85V26.7812C66.1562 25.5863 65.1949 24.625 64 24.625C62.8051 24.625 61.8438 25.5863 61.8438 26.7812Z" fill="black"/>
</svg>
